<?xml version="1.0" encoding="UTF-8"?>
<svg width="167px" height="28px" viewBox="0 0 167 28" version="1.1" xmlns="http://www.w3.org/2000/svg" xmlns:xlink="http://www.w3.org/1999/xlink">
    <!-- Generator: Sketch 50.2 (55047) - http://www.bohemiancoding.com/sketch -->
    <title>Logo</title>
    <desc>Created with Sketch.</desc>
    <defs></defs>
    <g id="Page-1" stroke="none" stroke-width="1" fill="none" fill-rule="evenodd">
        <g id="02---Page---Search-Results" transform="translate(-24.000000, -27.000000)">
            <g id="Header">
                <g id="Logo" transform="translate(24.000000, 27.000000)">
                    <path d="M16.2963023,23.1573243 L8.20442785,23.1573243 L8.20442785,5.6017027 L15.9710717,5.6017027 C19.7445854,5.6017027 21.9434187,7.52537838 21.9434187,10.5327297 C21.9434187,12.4806216 20.5323068,13.7375946 19.55509,14.1568378 C20.721421,14.6517568 22.214889,15.7592703 22.214889,18.1025676 C22.214889,21.3831081 19.7445854,23.1573243 16.2963023,23.1573243 M15.671768,8.659 L11.9794667,8.659 L11.9794667,12.701973 L15.671768,12.701973 C17.2735192,12.701973 18.1702863,11.8895946 18.1702863,10.6802973 C18.1702863,9.47289189 17.2735192,8.659 15.671768,8.659 M15.9161676,15.7853784 L11.9794667,15.7853784 L11.9794667,20.100027 L15.9161676,20.100027 C17.6262018,20.100027 18.4417566,19.1135946 18.4417566,17.9307838 C18.4417566,16.7472162 17.6262018,15.7853784 15.9161676,15.7853784" id="Fill-1" fill="#1B2733"></path>
                    <polygon id="Fill-3" fill="#1B2733" points="26.0703014 23.1568324 29.8434338 23.1568324 29.8434338 5.60121081 26.0703014 5.60121081"></polygon>
                    <path d="M44.6133256,23.1577027 L40.838668,16.1546757 L38.1235836,16.1546757 L38.1235836,23.1577027 L34.3500699,23.1577027 L34.3500699,5.60208108 L41.9256932,5.60208108 C45.8623941,5.60208108 48.1973438,8.04262162 48.1973438,10.9765676 C48.1973438,13.4428378 46.5406886,14.9714865 44.6670858,15.5878649 L48.9839215,23.1577027 L44.6133256,23.1577027 Z M41.6816749,8.65937838 L38.1235836,8.65937838 L38.1235836,13.2952703 L41.6816749,13.2952703 C43.336805,13.2952703 44.422305,12.3334324 44.422305,10.9765676 C44.422305,9.62121622 43.336805,8.65937838 41.6816749,8.65937838 Z" id="Fill-5" fill="#1B2733"></path>
                    <path d="M64.1880895,21.4808811 C62.9115689,22.6398541 61.0928703,23.1574757 59.0831511,23.1574757 L52.1065164,23.1574757 L52.1065164,5.60147568 L59.0831511,5.60147568 C61.0928703,5.60147568 62.9115689,6.11834054 64.1880895,7.27807027 C66.3594708,9.25169189 66.1429046,11.6665027 66.1429046,14.3045568 C66.1429046,16.9429892 66.3594708,19.5072595 64.1880895,21.4808811 M61.5542174,9.74434054 C60.9037562,9.02996216 60.0344411,8.65877297 58.7308498,8.65877297 L55.8796489,8.65877297 L55.8796489,20.1001784 L58.7308498,20.1001784 C60.0344411,20.1001784 60.9037562,19.7305027 61.5542174,19.0142324 C62.2611078,18.2256919 62.3693909,16.9687189 62.3693909,14.3045568 C62.3693909,11.6422865 62.2611078,10.5325027 61.5542174,9.74434054" id="Fill-6" fill="#1B2733"></path>
                    <polygon id="Fill-7" fill="#1B2733" points="95.1673521 8.65884865 95.1673521 12.9734973 102.796736 12.9734973 102.796736 16.0307946 95.1673521 16.0307946 95.1673521 23.157173 91.3942196 23.157173 91.3942196 5.60155135 104.126635 5.60155135 104.126635 8.65884865"></polygon>
                    <polygon id="Fill-8" fill="#1B2733" points="111.185512 8.65884865 111.185512 12.9734973 118.814895 12.9734973 118.814895 16.0307946 111.185512 16.0307946 111.185512 23.157173 107.412379 23.157173 107.412379 5.60155135 120.144795 5.60155135 120.144795 8.65884865"></polygon>
                    <polygon id="Fill-9" fill="#1B2733" points="123.43092 23.1568324 127.204053 23.1568324 127.204053 5.60121081 123.43092 5.60121081"></polygon>
                    <path d="M138.17214,23.3051189 C136.054137,23.3051189 134.316651,22.6145784 132.958918,21.3814432 C131.004103,19.607227 131.059389,17.4122541 131.059389,14.3803081 C131.059389,11.3468486 131.004103,9.15225405 132.958918,7.37765946 C134.316651,6.14414595 136.054137,5.45398378 138.17214,5.45398378 C141.783991,5.45398378 144.607359,7.32771351 145.285272,11.0017676 L141.456854,11.0017676 C141.078245,9.59684865 140.099503,8.51128108 138.199592,8.51128108 C137.167471,8.51128108 136.325989,8.85636216 135.782286,9.42317297 C135.049468,10.1636595 134.832521,11.0017676 134.832521,14.3803081 C134.832521,17.7573351 135.049468,18.5954432 135.782286,19.3359297 C136.325989,19.9027405 137.167471,20.2478216 138.199592,20.2478216 C140.099503,20.2478216 141.078245,19.1641459 141.456854,17.7573351 L145.285272,17.7573351 C144.607359,21.4313892 141.756158,23.3051189 138.17214,23.3051189" id="Fill-10" fill="#1B2733"></path>
                    <polygon id="Fill-11" fill="#1B2733" points="148.543374 23.1573243 148.543374 5.6017027 161.277314 5.6017027 161.277314 8.659 152.316506 8.659 152.316506 12.7776486 159.947415 12.7776486 159.947415 15.8349459 152.316506 15.8349459 152.316506 20.100027 161.277314 20.100027 161.277314 23.1573243"></polygon>
                    <path d="M163.269876,0.000113513514 L163.269876,0.865464865 L166.04444,0.865464865 L166.04444,4.90238378 L166.23546,4.96670811 C166.355563,5.00832973 166.474903,5.05184324 166.5931,5.09497838 L166.999161,5.24897838 L166.999161,0.000113513514 L163.269876,0.000113513514 Z" id="Fill-13" fill="#1B2733"></path>
                    <path d="M166.23485,23.9898324 L166.045355,24.0541568 L166.045355,26.8624811 L162.786567,26.8624811 L162.786567,27.7282108 L167.000076,27.7282108 L167.000076,23.7071838 L166.593633,23.8611838 C166.474293,23.9062108 166.35419,23.9482108 166.23485,23.9898324" id="Fill-14" fill="#1B2733"></path>
                    <path d="M85.4964888,21.2114757 C84.1616326,22.4238 82.5335733,23.1029892 80.3705801,23.1029892 C78.2087308,23.1029892 76.5516943,22.4238 75.2168381,21.2114757 C73.294813,19.4660162 73.348192,17.3066108 73.348192,14.3261243 C73.348192,11.3426108 73.294813,9.18434054 75.2168381,7.43925946 C76.5516943,6.22655676 78.2087308,5.54736757 80.3705801,5.54736757 C82.5335733,5.54736757 84.1616326,6.22655676 85.4964888,7.43925946 C87.4188952,9.18434054 87.3929683,11.3426108 87.3929683,14.3261243 C87.3929683,17.3066108 87.4188952,19.4660162 85.4964888,21.2114757 M82.7455642,9.47644865 C82.2136806,8.91796216 81.3832559,8.5550973 80.3705801,8.5550973 C79.3559979,8.5550973 78.5015527,8.91796216 77.9658564,9.47644865 C77.2460025,10.2021784 77.0599386,11.0024486 77.0599386,14.3261243 C77.0599386,17.6448811 77.2460025,18.4478 77.9658564,19.1739081 C78.5015527,19.732773 79.3559979,20.0956378 80.3705801,20.0956378 C81.3832559,20.0956378 82.2136806,19.732773 82.7455642,19.1739081 C83.4677057,18.4478 83.6808404,17.6448811 83.6808404,14.3261243 C83.6808404,11.0024486 83.4677057,10.2021784 82.7455642,9.47644865" id="Fill-15" fill="#2FBFD0"></path>
                    <polygon id="Fill-12" fill="#0070E0" points="0 0.265810811 0 27.4625135 5.84118721 27.4625135 5.84118721 24.9432703 2.77647032 24.9432703 2.77647032 2.78845946 5.35886986 2.78845946 5.35886986 0.265810811"></polygon>
                </g>
            </g>
        </g>
    </g>
</svg>