<?xml version="1.0" encoding="UTF-8"?>
<svg width="24px" height="24px" viewBox="0 0 24 24" version="1.1" xmlns="http://www.w3.org/2000/svg" xmlns:xlink="http://www.w3.org/1999/xlink">
    <!-- Generator: Sketch 50.2 (55047) - http://www.bohemiancoding.com/sketch -->
    <title>Mask</title>
    <desc>Created with Sketch.</desc>
    <defs>
        <path d="M42.1554031,34.9065234 L41.0658662,34.9065234 L40.6871355,35.2824881 C42.0250429,36.8426048 42.838765,38.8651306 42.838765,41.0811274 C42.838765,46.0070894 38.8456261,50 33.9193825,50 C28.9931389,50 25,46.0070894 25,41.0811274 C25,36.1551655 28.9931389,32.1622549 33.9193825,32.1622549 C36.135506,32.1622549 38.1567753,32.9745583 39.7169811,34.3110171 L40.0957118,33.9350523 L40.0957118,32.848322 L46.9540309,26 L49,28.0458522 L42.1554031,34.9065234 L42.1554031,34.9065234 Z M33.9193825,34.9065234 C30.5080617,34.9065234 27.7444254,37.6700017 27.7444254,41.0811274 C27.7444254,44.490881 30.5080617,47.2557315 33.9193825,47.2557315 C37.329331,47.2557315 40.0943396,44.490881 40.0943396,41.0811274 C40.0943396,37.6700017 37.329331,34.9065234 33.9193825,34.9065234 L33.9193825,34.9065234 Z" id="path-1"></path>
    </defs>
    <g id="Page-1" stroke="none" stroke-width="1" fill="none" fill-rule="evenodd">
        <g id="02---Page---Search-Results" transform="translate(-190.000000, -494.000000)">
            <g id="Search-Box" transform="translate(165.000000, 468.000000)">
                <mask id="mask-2" fill="white">
                    <use xlink:href="#path-1"></use>
                </mask>
                <use id="Mask" fill="#4A4A4A" transform="translate(37.000000, 38.000000) scale(1, -1) translate(-37.000000, -38.000000) " xlink:href="#path-1"></use>
            </g>
        </g>
    </g>
</svg>